<?xml version="1.0" encoding="UTF-8"?>
<svg width="32px" height="32px" viewBox="0 0 32 32" version="1.1" xmlns="http://www.w3.org/2000/svg" xmlns:xlink="http://www.w3.org/1999/xlink">
    <!-- Generator: Sketch 63.1 (92452) - https://sketch.com -->
    <title>icon/导航/设置hover</title>
    <desc>Created with Sketch.</desc>
    <g id="icon/导航/设置hover" stroke="none" stroke-width="1" fill="none" fill-rule="evenodd">
        <g id="录制" transform="translate(4.000000, 4.000000)" stroke="#9EA5B3" stroke-width="3">
            <g id="编组-20" transform="translate(-0.000485, -0.000485)">
                <path d="M6.71808027,2.69125896 C6.67199652,3.78230326 6.21081334,4.76596671 5.48839002,5.48839002 C4.76595474,6.2108253 3.78227067,6.6720118 2.69120475,6.71808256 C2.24005498,7.51125942 1.88747626,8.36770057 1.65053707,9.27057135 C2.27681724,10.0057415 2.65473543,10.9590443 2.65473543,12.0004849 C2.65473543,13.0419309 2.27689462,13.9951484 1.65000249,14.7298151 C1.88737485,15.6332 2.24009099,16.4898067 2.69131874,17.282892 C3.78233919,17.32899 4.7659799,17.7901696 5.48839002,18.5125797 C6.21082392,19.2350136 6.67201003,20.2186953 6.7180823,21.3097587 C7.51128295,21.7609034 8.36778065,22.1134321 9.27082434,22.3501396 C10.0060796,21.7240184 10.959229,21.3462343 12.0004849,21.3462343 C13.0418085,21.3462343 13.9949804,21.7239414 14.7298463,22.3510595 C15.6333096,22.1135547 16.4899123,21.7607326 17.2829118,21.309183 C17.3291219,20.2183492 17.7902729,19.2348865 18.5125797,18.5125797 C19.2350136,17.7901458 20.2186953,17.3289597 21.3097587,17.2828874 C21.7609034,16.4896868 22.1134321,15.6331891 22.3501396,14.7301454 C21.7240184,13.9948901 21.3462343,13.0417408 21.3462343,12.0004849 C21.3462343,10.9591612 21.7239414,10.0059893 22.3510595,9.2711234 C22.1135547,8.36766009 21.7607326,7.51105741 21.309183,6.71805794 C20.2183492,6.67184777 19.2348865,6.21069684 18.5125797,5.48839002 C17.7903165,4.76612681 17.3291776,3.78273925 17.2829201,2.69198434 C16.4841582,2.24000891 15.6174012,1.89297371 14.6883733,1.68592388 C13.9590389,2.29101475 13.0221813,2.65473543 12.0004849,2.65473543 C10.9590388,2.65473543 10.0058213,2.27689462 9.27115463,1.65000249 C8.36755501,1.88743307 7.51089616,2.24017001 6.71808027,2.69125896 Z" id="形状结合"></path>
                <circle id="椭圆形" cx="12.0004849" cy="12.0004849" r="3"></circle>
            </g>
        </g>
    </g>
</svg>