<?xml version="1.0" encoding="UTF-8"?>
<svg width="20px" height="20px" viewBox="0 0 20 20" version="1.1" xmlns="http://www.w3.org/2000/svg" xmlns:xlink="http://www.w3.org/1999/xlink">
    <!-- Generator: Sketch 63.1 (92452) - https://sketch.com -->
    <title>icon/导航/点名板</title>
    <desc>Created with Sketch.</desc>
    <g id="icon/导航/点名板" stroke="none" stroke-width="1" fill="none" fill-rule="evenodd">
        <g id="人员" transform="translate(2.000000, 3.000000)" fill="#FFFFFF" fill-rule="nonzero">
            <rect id="矩形" opacity="0" x="0" y="0" width="15" height="15"></rect>
            <g id="编组-16">
                <g id="编组-17">
                    <path d="M13.5567997,8.66186719 C12.1526928,8.39136679 10.707483,8.84922939 9.71081781,9.8803278 C9.14255178,9.04672036 8.35548516,8.38811432 7.43722635,7.97781913 C9.10297428,7.01030651 9.91509597,5.03786207 9.41727306,3.16877122 C8.91945015,1.29968038 7.23581453,0 5.31237451,0 C3.38893449,0 1.70529887,1.29968038 1.20747596,3.16877122 C0.709653053,5.03786207 1.52177474,7.01030651 3.18752267,7.97781913 C1.23129615,8.89373283 -0.0141523281,10.8733939 0.000121400155,13.0440501 C0.000121400155,14.1201311 0.864237643,14.9941198 1.93386008,15 L15.0654445,15 C16.1309362,14.9941584 16.993253,14.1266477 16.9990596,13.0547383 C17.04215,10.9511783 15.6000427,9.11082004 13.5567997,8.66186719 Z M5.31237451,2.17409886 C6.48589778,2.17409886 7.43722635,3.13115745 7.43722635,4.31174905 C7.43722635,5.49234065 6.48589778,6.44939924 5.31237451,6.44939924 C4.13885124,6.44939924 3.18752267,5.49234065 3.18752267,4.31174905 C3.18752267,3.13115745 4.13885124,2.17409886 5.31237451,2.17409886 Z M2.12509674,12.8623498 C2.12509674,11.0914624 3.55208961,9.65587452 5.31237451,9.65587452 C7.07265941,9.65587452 8.49965228,11.0914624 8.49965228,12.8623498 L2.12509674,12.8623498 Z M10.6245041,12.8623498 C10.6245041,11.6817582 11.5758327,10.7246996 12.749356,10.7246996 C13.9228792,10.7246996 14.8742078,11.6817582 14.8742078,12.8623498 L10.6245041,12.8623498 Z" id="形状"></path>
                    <path d="M11,6 C11,7.1045695 11.8954305,8 13,8 C14.1045695,8 15,7.1045695 15,6 C15,4.8954305 14.1045695,4 13,4 C11.8954305,4 11,4.8954305 11,6 Z" id="路径"></path>
                </g>
            </g>
        </g>
    </g>
</svg>