<?xml version="1.0" encoding="UTF-8"?>
<svg width="20px" height="20px" viewBox="0 0 20 20" version="1.1" xmlns="http://www.w3.org/2000/svg" xmlns:xlink="http://www.w3.org/1999/xlink">
    <!-- Generator: Sketch 63.1 (92452) - https://sketch.com -->
    <title>icon/导航/举手</title>
    <desc>Created with Sketch.</desc>
    <g id="icon/导航/举手" stroke="none" stroke-width="1" fill="none" fill-rule="evenodd">
        <g id="手" transform="translate(2.000000, 1.000000)" fill="#FFFFFF">
            <path d="M8.48209147,0.477111816 C9.03437622,0.477111816 9.48209147,0.924827067 9.48209147,1.47711182 L9.482,9.01111182 L10.483,9.01311182 L10.483565,2.88678641 C10.483565,2.33451673 10.931268,1.88681369 11.4835377,1.88681369 C12.0358074,1.88681369 12.4835104,2.33451673 12.4835104,2.88678641 L12.483,9.01811182 L13.498,9.02011182 L13.4983268,4.87726807 C13.4983268,4.32604515 13.9451813,3.87919068 14.4964042,3.87919068 C15.0476271,3.87919068 15.4944816,4.32604515 15.4944816,4.87726807 L15.4955979,10.9215533 C15.4972075,10.9544596 15.4980216,10.9875746 15.4980216,11.0208794 L15.4980216,16 C15.4980216,17.1045695 14.6025911,18 13.4980216,18 L7.49802164,18 C7.05772508,18 6.63958233,17.9051483 6.26291229,17.7347638 C5.87235241,17.5965147 5.51467158,17.3620074 5.22829109,17.0421337 L0.250246004,11.4818888 C-0.0972902734,11.0937069 -0.0809474211,10.501618 0.287472601,10.133198 C0.657087544,9.76358308 1.24992387,9.74368906 1.64348601,10.0876938 L4.491,12.5761118 L4.49137835,2.88283624 C4.49137835,2.33272447 4.93733205,1.88677077 5.48744382,1.88677077 C6.03755559,1.88677077 6.48350929,2.33272447 6.48350929,2.88283624 L6.48297236,9.00469949 C6.48798442,9.00466255 6.49300087,9.00464405 6.49802164,9.00464405 L6.5026603,9.00464943 L7.482,9.00611182 L7.48209147,1.47711182 C7.48209147,0.924827067 7.92980672,0.477111816 8.48209147,0.477111816 Z" id="Combined-Shape"></path>
        </g>
    </g>
</svg>